<svg xmlns="http://www.w3.org/2000/svg" xmlns:xlink="http://www.w3.org/1999/xlink" width="500" zoomAndPan="magnify" viewBox="0 0 375 374.999991" height="500" preserveAspectRatio="xMidYMid meet" version="1.0"><defs><g/><clipPath id="766175e68a"><path d="M 143.035156 301.328125 L 293.179688 301.328125 L 293.179688 337.5 L 143.035156 337.5 Z M 143.035156 301.328125 " clip-rule="nonzero"/></clipPath><clipPath id="9b217c9dd2"><path d="M 192 156 L 243 156 L 243 202 L 192 202 Z M 192 156 " clip-rule="nonzero"/></clipPath><clipPath id="5d4c4ba188"><path d="M 243.796875 200.863281 L 193.265625 201.855469 L 192.398438 157.640625 L 242.929688 156.648438 Z M 243.796875 200.863281 " clip-rule="nonzero"/></clipPath><clipPath id="44a199137f"><path d="M 218.53125 201.359375 L 192.398438 157.640625 L 242.929688 156.648438 Z M 218.53125 201.359375 " clip-rule="nonzero"/></clipPath></defs><rect x="-37.5" width="450" fill="#ffffff" y="-37.499999" height="449.999989" fill-opacity="1"/><rect x="-37.5" width="450" fill="#333333" y="-37.499999" height="449.999989" fill-opacity="1"/><rect x="-37.5" width="450" fill="#333333" y="-37.499999" height="449.999989" fill-opacity="1"/><g fill="#ffffff" fill-opacity="1"><g transform="translate(42.215684, 202.165942)"><g><path d="M 110.515625 -26.65625 L 47.3125 -26.65625 L 36.765625 0 L -1.03125 0 L 61.359375 -144.609375 L 99.15625 -144.609375 L 160.09375 0 L 120.84375 0 Z M 99.78125 -54.53125 L 79.125 -108.046875 L 58.046875 -54.53125 Z M 99.78125 -54.53125 "/></g></g></g><g fill="#ffffff" fill-opacity="1"><g transform="translate(129.279242, 293.42844)"><g><path d="M 163.78125 0 L 133.140625 0 L 132.9375 -88.828125 L 100.140625 -13.671875 L 77.5 -13.671875 L 44.703125 -88.828125 L 44.703125 0 L 13.671875 0 L 13.671875 -136.84375 L 51.734375 -136.84375 L 88.828125 -55.4375 L 125.921875 -136.84375 L 163.78125 -136.84375 Z M 163.78125 0 "/></g></g></g><g clip-path="url(#766175e68a)"><path fill="#d21629" d="M 143.035156 301.328125 L 293.179688 301.328125 L 293.179688 337.5 L 143.035156 337.5 Z M 143.035156 301.328125 " fill-opacity="1" fill-rule="nonzero"/></g><g fill="#ffffff" fill-opacity="1"><g transform="translate(148.228427, 330.203576)"><g><path d="M 12.75 -21.15625 L 12.75 -6.53125 C 12.75 -4.414062 12.164062 -2.769531 11 -1.59375 C 9.832031 -0.425781 8.222656 0.15625 6.171875 0.15625 C 3.671875 0.15625 1.59375 -0.863281 -0.0625 -2.90625 L 1.625 -5.625 C 3.0625 -4.070312 4.566406 -3.296875 6.140625 -3.296875 C 7.097656 -3.296875 7.835938 -3.582031 8.359375 -4.15625 C 8.890625 -4.726562 9.15625 -5.554688 9.15625 -6.640625 L 9.15625 -17.953125 L 1.84375 -17.953125 L 1.84375 -21.15625 Z M 12.75 -21.15625 "/></g></g></g><g fill="#ffffff" fill-opacity="1"><g transform="translate(175.391807, 330.203576)"><g><path d="M 4.265625 -18.171875 C 6.421875 -20.222656 9.078125 -21.25 12.234375 -21.25 C 15.398438 -21.25 18.0625 -20.222656 20.21875 -18.171875 C 22.375 -16.128906 23.453125 -13.597656 23.453125 -10.578125 C 23.453125 -7.554688 22.375 -5.007812 20.21875 -2.9375 C 18.0625 -0.875 15.398438 0.15625 12.234375 0.15625 C 9.078125 0.15625 6.421875 -0.875 4.265625 -2.9375 C 2.109375 -5.007812 1.03125 -7.554688 1.03125 -10.578125 C 1.03125 -13.597656 2.109375 -16.128906 4.265625 -18.171875 Z M 12.265625 -18.046875 C 10.171875 -18.046875 8.378906 -17.320312 6.890625 -15.875 C 5.398438 -14.4375 4.65625 -12.671875 4.65625 -10.578125 C 4.65625 -8.484375 5.40625 -6.703125 6.90625 -5.234375 C 8.40625 -3.773438 10.191406 -3.046875 12.265625 -3.046875 C 14.335938 -3.046875 16.109375 -3.773438 17.578125 -5.234375 C 19.054688 -6.703125 19.796875 -8.484375 19.796875 -10.578125 C 19.796875 -12.671875 19.054688 -14.4375 17.578125 -15.875 C 16.109375 -17.320312 14.335938 -18.046875 12.265625 -18.046875 Z M 12.265625 -18.046875 "/></g></g></g><g fill="#ffffff" fill-opacity="1"><g transform="translate(211.949366, 330.203576)"><g><path d="M 21.125 0 L 17.625 0 L 6.34375 -15.171875 L 6.34375 0 L 2.78125 0 L 2.78125 -21.15625 L 6.28125 -21.15625 L 17.625 -5.953125 L 17.625 -21.15625 L 21.125 -21.15625 Z M 21.125 0 "/></g></g></g><g fill="#ffffff" fill-opacity="1"><g transform="translate(247.963211, 330.203576)"><g><path d="M 6.34375 0 L 2.78125 0 L 2.78125 -21.15625 L 6.34375 -21.15625 Z M 6.34375 0 "/></g></g></g><g fill="#ffffff" fill-opacity="1"><g transform="translate(269.175935, 330.203576)"><g><path d="M 9.734375 -21.296875 C 12.472656 -21.296875 14.941406 -20.570312 17.140625 -19.125 L 15.65625 -15.984375 C 13.5 -17.296875 11.429688 -17.953125 9.453125 -17.953125 C 8.390625 -17.953125 7.550781 -17.757812 6.9375 -17.375 C 6.320312 -16.988281 6.015625 -16.441406 6.015625 -15.734375 C 6.015625 -15.035156 6.296875 -14.4375 6.859375 -13.9375 C 7.421875 -13.445312 8.125 -13.085938 8.96875 -12.859375 C 9.820312 -12.628906 10.738281 -12.335938 11.71875 -11.984375 C 12.707031 -11.628906 13.625 -11.253906 14.46875 -10.859375 C 15.320312 -10.472656 16.023438 -9.859375 16.578125 -9.015625 C 17.128906 -8.179688 17.40625 -7.171875 17.40625 -5.984375 C 17.40625 -4.128906 16.664062 -2.644531 15.1875 -1.53125 C 13.707031 -0.425781 11.785156 0.125 9.421875 0.125 C 7.816406 0.125 6.257812 -0.175781 4.75 -0.78125 C 3.238281 -1.382812 1.914062 -2.203125 0.78125 -3.234375 L 2.328125 -6.3125 C 3.390625 -5.320312 4.5625 -4.5625 5.84375 -4.03125 C 7.125 -3.5 8.335938 -3.234375 9.484375 -3.234375 C 10.734375 -3.234375 11.707031 -3.457031 12.40625 -3.90625 C 13.101562 -4.363281 13.453125 -4.992188 13.453125 -5.796875 C 13.453125 -6.523438 13.164062 -7.132812 12.59375 -7.625 C 12.03125 -8.125 11.328125 -8.488281 10.484375 -8.71875 C 9.640625 -8.945312 8.722656 -9.226562 7.734375 -9.5625 C 6.742188 -9.894531 5.828125 -10.25 4.984375 -10.625 C 4.140625 -11 3.4375 -11.597656 2.875 -12.421875 C 2.3125 -13.242188 2.03125 -14.238281 2.03125 -15.40625 C 2.03125 -17.195312 2.734375 -18.625 4.140625 -19.6875 C 5.546875 -20.757812 7.410156 -21.296875 9.734375 -21.296875 Z M 9.734375 -21.296875 "/></g></g></g><g clip-path="url(#9b217c9dd2)"><g clip-path="url(#5d4c4ba188)"><g clip-path="url(#44a199137f)"><path fill="#d21629" d="M 243.796875 200.863281 L 193.265625 201.855469 L 192.398438 157.640625 L 242.929688 156.648438 Z M 243.796875 200.863281 " fill-opacity="1" fill-rule="nonzero"/></g></g></g></svg>